<svg xmlns="http://www.w3.org/2000/svg" width="36" height="36" viewBox="0 0 36 36" fill="none">
  <path d="M27.1047 15.48C26.8197 15.48 26.5347 15.375 26.3097 15.15L17.9997 6.84003L9.68969 15.15C9.25469 15.585 8.53469 15.585 8.09969 15.15C7.66469 14.715 7.66469 13.995 8.09969 13.56L17.2047 4.45503C17.6397 4.02003 18.3597 4.02003 18.7947 4.45503L27.8997 13.56C28.3347 13.995 28.3347 14.715 27.8997 15.15C27.6897 15.375 27.3897 15.48 27.1047 15.48Z" fill="#0C4848"/>
  <path d="M18 31.875C17.385 31.875 16.875 31.365 16.875 30.75V5.505C16.875 4.89 17.385 4.38 18 4.38C18.615 4.38 19.125 4.89 19.125 5.505V30.75C19.125 31.365 18.615 31.875 18 31.875Z" fill="#0C4848"/>
</svg>