<svg xmlns="http://www.w3.org/2000/svg" width="36" height="36" viewBox="0 0 36 36" fill="none">
  <path d="M18.1948 34.1249C17.7898 34.1249 17.4748 34.0199 17.2498 33.9149C16.7098 33.6599 15.7948 32.9549 15.7948 31.0649V21.3899L7.70979 28.7999C7.25979 29.2199 6.53975 29.1899 6.11975 28.7249C5.69975 28.2599 5.72978 27.5549 6.19478 27.1349L15.7948 18.3299V17.6549L6.19478 8.84987C5.72978 8.42987 5.69975 7.72487 6.11975 7.25987C6.53975 6.80988 7.25979 6.76489 7.70979 7.18489L15.7948 14.5949V4.91988C15.7948 3.02988 16.7098 2.30989 17.2498 2.06989C17.7898 1.81489 18.9147 1.57486 20.3697 2.78986L26.1448 7.60489C26.7748 8.12989 27.1497 8.8799 27.1647 9.6749C27.1797 10.4699 26.8498 11.2349 26.2348 11.7899L19.4848 17.9849L26.2348 24.1799C26.8348 24.7349 27.1797 25.5149 27.1647 26.2949C27.1497 27.0899 26.7748 27.8399 26.1448 28.3649L20.3697 33.1799C19.5147 33.9149 18.7648 34.1249 18.1948 34.1249ZM18.0448 19.7249V31.0649C18.0448 31.6199 18.1648 31.8599 18.2248 31.8899C18.2398 31.8749 18.5098 31.8149 18.9298 31.4699L24.7048 26.6549C24.8398 26.5349 24.9147 26.3999 24.9147 26.2499C24.9147 26.0999 24.8548 25.9649 24.7198 25.8449L18.0448 19.7249ZM18.1798 4.12488C18.1648 4.13988 18.0448 4.39489 18.0448 4.93489V16.2749L24.7198 10.1549C24.8548 10.0349 24.9147 9.89988 24.9147 9.74988C24.9147 9.59988 24.8398 9.4649 24.7048 9.3449L18.9147 4.52986C18.5247 4.19986 18.2698 4.12488 18.1798 4.12488Z" fill="white"/>
  <path d="M7.5 20.625C6.06 20.625 4.875 19.44 4.875 18C4.875 16.56 6.06 15.375 7.5 15.375C8.94 15.375 10.125 16.56 10.125 18C10.125 19.44 8.94 20.625 7.5 20.625ZM7.5 17.625C7.29 17.625 7.125 17.79 7.125 18C7.125 18.42 7.875 18.42 7.875 18C7.875 17.79 7.71 17.625 7.5 17.625Z" fill="white"/>
  <path d="M28.5 20.625C27.06 20.625 25.875 19.44 25.875 18C25.875 16.56 27.06 15.375 28.5 15.375C29.94 15.375 31.125 16.56 31.125 18C31.125 19.44 29.94 20.625 28.5 20.625ZM28.5 17.625C28.29 17.625 28.125 17.79 28.125 18C28.125 18.42 28.875 18.42 28.875 18C28.875 17.79 28.71 17.625 28.5 17.625Z" fill="white"/>
</svg>