<svg xmlns="http://www.w3.org/2000/svg" width="40" height="40" viewBox="0 0 40 40" fill="none">
  <path fill-rule="evenodd" clip-rule="evenodd" d="M2.5 20C2.5 10.3354 10.3354 2.5 20 2.5C29.6646 2.5 37.5 10.3354 37.5 20C37.5 29.6646 29.6646 37.5 20 37.5C10.3354 37.5 2.5 29.6646 2.5 20ZM20 5C11.7161 5 5 11.7161 5 20C5 28.2839 11.7161 35 20 35C28.2839 35 35 28.2839 35 20C35 11.7161 28.2839 5 20 5Z" fill="#0F7A7A"/>
  <path d="M34.8102 13.4484C33.5555 13.4562 33.6789 15.7711 32.1156 14.6789C31.5352 14.2742 31.1781 13.6859 30.4492 13.507C29.8125 13.3508 29.1602 13.5133 28.5313 13.6219C27.8164 13.7453 26.9688 13.8008 26.4266 14.3422C25.9024 14.8633 25.625 15.5625 25.0672 16.0867C23.9883 17.1023 23.5328 18.2109 24.2313 19.6469C24.9031 21.0273 26.3086 21.7765 27.825 21.6781C29.3149 21.5789 30.8625 20.7148 30.8195 22.8797C30.8039 23.6453 30.9641 24.1765 31.1992 24.8883C31.4172 25.5445 31.4024 26.1805 31.4524 26.8578C31.5445 28.1234 31.7774 29.5422 32.4055 30.6601L33.5774 29.007C33.7219 28.8023 34.0242 28.5156 34.0961 28.2742C34.2234 27.8469 33.9727 27.1125 33.9438 26.6336C33.9149 26.1547 33.9289 25.6695 33.8555 25.1906C33.7524 24.5195 33.3555 23.8906 33.3008 23.2273C33.2 21.9922 33.4258 21.0062 32.4742 19.9734C31.5555 18.9773 30.2086 18.7383 28.9219 18.9406C28.2735 19.0422 25.6633 19.4594 26.7109 17.9773C26.918 17.6859 27.2797 17.4469 27.5125 17.1695C27.7149 16.9281 27.8906 16.4844 28.1281 16.2961C28.3656 16.1078 29.4563 15.8914 29.7688 15.9875C30.0813 16.0836 30.407 16.5344 30.6781 16.7344C31.179 17.1116 31.7635 17.3625 32.382 17.4656C33.4492 17.6219 35.6805 17.0015 35.6633 15.6328C35.6602 14.9765 35.0508 14.0625 34.8102 13.4484Z" fill="#0F7A7A"/>
  <path d="M22.457 24.7109C22.0406 22.9577 19.6586 22.3718 18.3742 21.421C17.6359 20.8741 16.9789 20.0296 16.0093 19.9609C15.5625 19.9288 15.1882 20.0257 14.7453 19.9109C14.339 19.8062 14.0203 19.5874 13.5875 19.6445C12.7789 19.7507 12.2687 20.6148 11.4 20.4976C10.5757 20.3866 9.72652 19.4226 9.53902 18.6374C9.2984 17.628 10.0968 17.3007 10.9523 17.2109C11.3093 17.1734 11.7101 17.1327 12.0531 17.2632C12.5046 17.4312 12.7179 17.8734 13.1234 18.0968C13.8836 18.5132 14.0375 17.8476 13.9211 17.1726C13.7468 16.1616 13.5437 15.7491 14.4453 15.0538C15.0703 14.5741 15.6046 14.2273 15.5046 13.3656C15.4453 12.8593 15.1679 12.6304 15.4265 12.1265C15.6226 11.7429 16.1609 11.3968 16.5117 11.1679C17.4171 10.5773 20.3906 10.621 19.1757 8.9679C18.8187 8.48274 18.1601 7.61555 17.5351 7.4968C16.7539 7.34915 16.407 8.22102 15.8625 8.6054C15.3 9.00305 14.2046 9.45461 13.6414 8.83977C12.8836 8.01243 14.1437 7.74055 14.4226 7.16321C14.7015 6.58586 13.7765 5.49446 13.2812 5.2179L10.9523 7.82961C10.8854 8.267 10.9087 8.71346 11.0207 9.14151C11.1328 9.56956 11.3312 9.97017 11.6039 10.3187C12.0671 10.9148 12.8046 11.1062 12.8382 11.9202C12.8711 12.7015 12.7492 13.1015 12.2382 13.6507C12.0171 13.8851 11.8609 14.2179 11.6359 14.4374C11.3601 14.7054 11.4625 14.6234 11.032 14.6968C10.2226 14.8335 9.53355 15.0445 8.75152 15.2601C7.4484 15.6202 7.32808 13.4913 6.73433 12.6562L4.78121 14.2335C4.76012 14.4921 5.10152 14.9679 5.19449 15.2491C5.72808 16.8562 6.80465 18.0991 7.49996 19.6366C8.23199 21.2648 10.1976 20.8132 11.0656 22.2398C11.8359 23.5054 11.0132 25.1077 11.5898 26.4327C12.0086 27.3945 12.9961 27.6046 13.6773 28.3077C14.3734 29.0179 14.3586 29.9898 14.4648 30.914C14.5846 32.0011 14.7791 33.0786 15.0468 34.139C15.1414 34.5054 15.2281 34.9898 15.4789 35.2921C15.6507 35.4999 16.2406 35.6788 16.0023 35.7476C16.3351 35.8023 16.9281 36.1132 17.2054 35.8851C17.5711 35.5851 17.4734 34.6616 17.5367 34.2445C17.7265 33.0023 18.3484 31.7874 19.1875 30.8577C20.0164 29.9406 21.1523 29.3195 21.8523 28.2796C22.5343 27.2656 22.7398 25.8976 22.457 24.7109ZM19.8484 26.7671C19.3796 27.6038 18.3359 28.164 17.6648 28.8288C17.4828 29.0093 17.0953 29.6343 16.8671 29.4991C16.7039 29.4023 16.6484 28.5913 16.5882 28.4054C16.2779 27.4691 15.6854 26.6518 14.8921 26.0656C14.6476 25.8804 14.0414 25.6398 13.9015 25.3859C13.7453 25.1101 13.8859 24.4593 13.8914 24.1593C13.9 23.7218 13.7007 22.9945 13.8086 22.5968C13.9336 22.1382 13.6929 22.4148 14.1031 22.3241C14.3195 22.2757 15.2132 22.4327 15.4828 22.489C15.9109 22.5781 16.1468 22.8445 16.4843 23.114C17.3718 23.8257 18.3492 24.3765 19.3437 24.9218C20.114 25.3484 20.3406 25.8882 19.8484 26.7671Z" fill="#0F7A7A"/>
  <path d="M14.4109 5.24132C14.7812 5.60304 15.1297 6.03116 15.682 6.0671C16.2047 6.10226 16.6976 5.81944 17.1539 6.17491C17.6601 6.56554 18.025 7.06007 18.6968 7.18194C19.3468 7.29991 20.0351 6.92023 20.1961 6.25538C20.3523 5.62179 20.0156 4.93273 19.9953 4.29679C19.9953 4.20851 20.0429 3.81632 19.982 3.74991C19.9367 3.69991 19.5586 3.75616 19.5008 3.75773C19.0773 3.77023 18.6549 3.79939 18.2336 3.84523C16.6975 4.01149 15.1932 4.39691 13.7664 4.98976C13.9562 5.12101 14.1945 5.17335 14.4109 5.24132Z" fill="#0F7A7A"/>
  <path d="M27.8438 9.63051C28.5071 9.63051 29.1805 9.33364 28.9664 8.56645C28.7868 7.92348 28.4805 7.22583 27.7352 7.5727C27.261 7.79301 26.5891 8.35395 26.5336 8.9102C26.4703 9.54145 27.4016 9.63051 27.8438 9.63051Z" fill="#0F7A7A"/>
  <path d="M27.3141 12.9876C27.9914 13.393 28.9961 13.2024 29.5071 12.6235C29.9063 12.1704 30.1414 11.3836 30.8594 11.3844C31.1755 11.3838 31.4791 11.5075 31.7047 11.729C32.0016 12.036 31.943 12.3243 32.0063 12.7086C32.1477 13.5719 33.0735 12.7579 33.3149 12.4235C33.4711 12.2055 33.6828 11.8821 33.6118 11.5985C33.5461 11.3336 33.2367 11.0516 33.0993 10.8086C32.6977 10.1055 32.3672 9.28756 31.7657 8.71959C31.1868 8.17271 30.475 8.23599 29.9258 8.80396C29.4758 9.27271 28.9532 9.64381 28.6453 10.2141C28.4282 10.6149 28.1836 10.8063 27.7438 10.9102C27.5016 10.9672 27.225 10.9883 27.0219 11.1508C26.4563 11.5961 26.7782 12.6657 27.3141 12.9876Z" fill="#0F7A7A"/>
</svg>