<svg xmlns="http://www.w3.org/2000/svg" width="40" height="40" viewBox="0 0 40 40" fill="none">
  <path fill-rule="evenodd" clip-rule="evenodd" d="M19.992 3.75006C19.6263 3.7477 19.2637 3.818 18.9253 3.95689C18.5869 4.09577 18.2795 4.30048 18.0208 4.55912C17.7622 4.81776 17.5575 5.12519 17.4186 5.46357C17.2797 5.80195 17.2094 6.16454 17.2118 6.53031L17.2118 6.53434V6.53836C17.2118 7.71181 17.6388 10.0996 18.028 12.0099C18.1659 12.6864 17.7292 13.3465 17.0528 13.4843C16.3763 13.6221 15.7162 13.1855 15.5784 12.509C15.2039 10.671 14.7127 8.01966 14.7118 6.54232C14.7079 5.84694 14.8418 5.15765 15.1058 4.51431C15.3704 3.8697 15.7604 3.28406 16.2531 2.79135C16.7458 2.29865 17.3314 1.90869 17.976 1.64412C18.6194 1.38006 19.3087 1.24614 20.0041 1.25008C22.9317 1.2523 25.2884 3.67047 25.2884 6.53836C25.2884 7.97839 24.7992 10.6467 24.4221 12.5077C24.2849 13.1843 23.6253 13.6217 22.9487 13.4846C22.2721 13.3475 21.8347 12.6878 21.9718 12.0112C22.3635 10.0784 22.7884 7.67646 22.7884 6.53836C22.7884 5.03257 21.5316 3.75008 20.0001 3.75008H19.996L19.992 3.75006Z" fill="#0F7A7A"/>
  <path fill-rule="evenodd" clip-rule="evenodd" d="M17.0531 26.516C17.7296 26.654 18.166 27.3143 18.028 27.9907C17.6372 29.9053 17.2118 32.2799 17.2118 33.4618V33.4658L17.2118 33.4699C17.2094 33.8356 17.2797 34.1982 17.4186 34.5366C17.5575 34.875 17.7622 35.1824 18.0208 35.4411C18.2795 35.6997 18.5869 35.9044 18.9253 36.0433C19.2637 36.1822 19.6262 36.2525 19.992 36.2501L19.996 36.2501H20.0001C21.5316 36.2501 22.7884 34.9676 22.7884 33.4618C22.7884 32.3206 22.3636 29.9236 21.9718 27.9888C21.8348 27.3122 22.2723 26.6526 22.9489 26.5156C23.6255 26.3786 24.2851 26.816 24.4221 27.4927C24.7991 29.3547 25.2884 32.0186 25.2884 33.4618C25.2884 36.3297 22.9316 38.7479 20.004 38.7501C19.3087 38.754 18.6194 38.6201 17.976 38.3561C17.3314 38.0915 16.7458 37.7015 16.2531 37.2088C15.7604 36.7161 15.3704 36.1305 15.1058 35.4859C14.8418 34.8425 14.7079 34.1532 14.7118 33.4579C14.7127 31.9719 15.2023 29.3339 15.5784 27.4908C15.7165 26.8144 16.3767 26.3779 17.0531 26.516Z" fill="#0F7A7A"/>
  <path fill-rule="evenodd" clip-rule="evenodd" d="M34.5366 17.4186C34.1982 17.2797 33.8356 17.2094 33.4699 17.2118L33.4658 17.2118H33.4618C32.2799 17.2118 29.9053 17.6372 27.9907 18.028C27.3143 18.166 26.654 17.7296 26.516 17.0531C26.3779 16.3767 26.8144 15.7165 27.4908 15.5784C29.3339 15.2023 31.9719 14.7127 33.4579 14.7118C34.1532 14.7079 34.8425 14.8418 35.4859 15.1058C36.1305 15.3704 36.7161 15.7604 37.2088 16.2531C37.7015 16.7458 38.0915 17.3314 38.3561 17.976C38.6201 18.6194 38.754 19.3087 38.7501 20.004C38.7479 22.9316 36.3297 25.2884 33.4618 25.2884C32.0218 25.2884 29.3535 24.7992 27.4925 24.4221C26.8159 24.2849 26.3785 23.6253 26.5156 22.9487C26.6527 22.2721 27.3124 21.8347 27.989 21.9718C29.9217 22.3635 32.3237 22.7884 33.4618 22.7884C34.9676 22.7884 36.2501 21.5316 36.2501 20.0001V19.996L36.2501 19.992C36.2525 19.6262 36.1822 19.2637 36.0433 18.9253C35.9044 18.5869 35.6997 18.2795 35.4411 18.0208C35.1824 17.7622 34.875 17.5575 34.5366 17.4186Z" fill="#0F7A7A"/>
  <path fill-rule="evenodd" clip-rule="evenodd" d="M6.54232 14.7118C8.0211 14.7127 10.6706 15.203 12.509 15.5776C13.1855 15.7154 13.6221 16.3755 13.4843 17.052C13.3465 17.7284 12.6864 18.1651 12.0099 18.0273C10.1 17.6381 7.71348 17.2118 6.53836 17.2118H6.53434L6.53031 17.2118C6.16454 17.2094 5.80195 17.2797 5.46357 17.4186C5.12519 17.5575 4.81776 17.7622 4.55912 18.0208C4.30048 18.2795 4.09577 18.5869 3.95689 18.9253C3.818 19.2637 3.7477 19.6263 3.75006 19.992L3.75008 19.996V20.0001C3.75008 21.5316 5.03257 22.7884 6.53836 22.7884C7.67646 22.7884 10.0784 22.3635 12.0112 21.9718C12.6878 21.8347 13.3475 22.2721 13.4846 22.9487C13.6217 23.6253 13.1843 24.2849 12.5077 24.4221C10.6467 24.7992 7.97839 25.2884 6.53836 25.2884C3.67047 25.2884 1.2523 22.9317 1.25008 20.0041C1.24614 19.3087 1.38006 18.6194 1.64412 17.976C1.90869 17.3314 2.29865 16.7458 2.79135 16.2531C3.28406 15.7604 3.8697 15.3704 4.51431 15.1058C5.15765 14.8418 5.84694 14.7079 6.54232 14.7118Z" fill="#0F7A7A"/>
  <path fill-rule="evenodd" clip-rule="evenodd" d="M29.5188 7.68188C29.1531 7.68188 28.791 7.75454 28.4535 7.89563C28.1161 8.03672 27.81 8.24343 27.5531 8.50377L27.55 8.50691L27.5469 8.51002C26.7093 9.34692 25.3127 11.3268 24.2394 12.9491C23.8585 13.5248 23.083 13.6828 22.5072 13.3018C21.9315 12.9209 21.7735 12.1454 22.1545 11.5696C23.1973 9.99341 24.7285 7.79328 25.7768 6.74458C26.2656 6.25007 26.8476 5.85735 27.4891 5.58911C28.1321 5.32031 28.822 5.18188 29.5188 5.18188C30.2157 5.18188 30.9056 5.32031 31.5485 5.58911C32.1901 5.85738 32.7722 6.25019 33.2611 6.74479C35.3296 8.81652 35.2861 12.1922 33.2586 14.2202C32.2428 15.2369 30.0212 16.7897 28.432 17.8446C27.8568 18.2264 27.081 18.0696 26.6992 17.4944C26.3175 16.9192 26.4742 16.1434 27.0494 15.7617C28.6852 14.6759 30.6839 13.26 31.49 12.4532C32.5549 11.3884 32.5735 9.59273 31.4904 8.50965L31.4875 8.50672L31.4846 8.50377C31.2277 8.24343 30.9216 8.03672 30.5842 7.89563C30.2467 7.75454 29.8846 7.68188 29.5188 7.68188Z" fill="#0F7A7A"/>
  <path fill-rule="evenodd" clip-rule="evenodd" d="M13.3019 22.5072C13.6829 23.083 13.5249 23.8585 12.9492 24.2394C11.3269 25.3127 9.34702 26.7093 8.51012 27.5469L8.50701 27.55L8.50387 27.5531C8.24353 27.81 8.03682 28.1161 7.89573 28.4535C7.75464 28.791 7.68199 29.1531 7.68199 29.5188C7.68199 29.8846 7.75464 30.2467 7.89573 30.5842C8.03682 30.9216 8.24353 31.2277 8.50387 31.4846L8.50682 31.4875L8.50976 31.4904C9.59283 32.5735 11.3881 32.5553 12.4529 31.4904C13.2597 30.6843 14.676 28.6852 15.7618 27.0494C16.1435 26.4742 16.9193 26.3175 17.4945 26.6992C18.0697 27.081 18.2265 27.8568 17.8447 28.432C16.7898 30.0212 15.237 32.2428 14.2203 33.2586C12.1923 35.2861 8.81663 35.3296 6.74489 33.2611C6.25029 32.7722 5.85749 32.1901 5.58922 31.5485C5.32041 30.9056 5.18199 30.2157 5.18199 29.5188C5.18199 28.822 5.32041 28.1321 5.58922 27.4891C5.85745 26.8476 6.25017 26.2656 6.74468 25.7768C7.79338 24.7285 9.99352 23.1973 11.5697 22.1545C12.1455 21.7735 12.921 21.9315 13.3019 22.5072Z" fill="#0F7A7A"/>
  <path fill-rule="evenodd" clip-rule="evenodd" d="M26.6982 22.5072C27.0791 21.9315 27.8547 21.7735 28.4304 22.1545C30.0066 23.1973 32.2068 24.7285 33.2555 25.7768C33.75 26.2656 34.1427 26.8476 34.4109 27.4891C34.6798 28.1321 34.8182 28.822 34.8182 29.5188C34.8182 30.2157 34.6798 30.9056 34.4109 31.5485C34.1427 32.1901 33.7499 32.7722 33.2553 33.2611C31.1834 35.3298 27.8074 35.2861 25.7795 33.2582C24.7616 32.2403 23.2114 30.0232 22.1554 28.4319C21.7737 27.8566 21.9306 27.0809 22.5058 26.6992C23.081 26.3174 23.8568 26.4743 24.2385 27.0495C25.3247 28.6863 26.7385 30.6817 27.5472 31.4904C28.6121 32.5553 30.4073 32.5735 31.4904 31.4904L31.4933 31.4875L31.4963 31.4846C31.7566 31.2277 31.9633 30.9216 32.1044 30.5842C32.2455 30.2467 32.3182 29.8846 32.3182 29.5188C32.3182 29.1531 32.2455 28.791 32.1044 28.4535C31.9633 28.1161 31.7566 27.81 31.4963 27.5531L31.4932 27.55L31.49 27.5469C30.6531 26.7093 28.6732 25.3128 27.051 24.2394C26.4752 23.8585 26.3173 23.083 26.6982 22.5072Z" fill="#0F7A7A"/>
  <path fill-rule="evenodd" clip-rule="evenodd" d="M8.45166 5.58911C9.09458 5.32031 9.7845 5.18188 10.4813 5.18188C11.1782 5.18188 11.8681 5.32031 12.511 5.58911C13.1527 5.85739 13.7347 6.25019 14.2236 6.7448C15.2653 7.78769 16.8042 9.997 17.8454 11.5692C18.2266 12.1447 18.069 12.9204 17.4934 13.3015C16.9178 13.6827 16.1422 13.5251 15.761 12.9496C14.6891 11.331 13.2847 9.34141 12.4529 8.50965L12.45 8.50672L12.4471 8.50377C12.1902 8.24343 11.8841 8.03672 11.5467 7.89563C11.2092 7.75454 10.8471 7.68188 10.4813 7.68188C10.1156 7.68188 9.75348 7.75454 9.41603 7.89563C9.07858 8.03672 8.77252 8.24343 8.51561 8.50377L8.51269 8.50672L8.50976 8.50965C7.42668 9.59273 7.44491 11.388 8.50976 12.4528C9.31228 13.2553 11.3176 14.6769 12.9511 15.7619C13.5262 16.1439 13.6827 16.9197 13.3007 17.4947C12.9187 18.0698 12.1429 18.2263 11.5678 17.8443C9.98102 16.7903 7.75355 15.2321 6.742 14.2206C4.71405 12.1926 4.67043 8.81667 6.73907 6.74481C7.22794 6.2502 7.81002 5.85739 8.45166 5.58911Z" fill="#0F7A7A"/>
  <path fill-rule="evenodd" clip-rule="evenodd" d="M20.0001 16.25C17.929 16.25 16.2501 17.9289 16.2501 20C16.2501 22.0711 17.929 23.75 20.0001 23.75C22.0712 23.75 23.7501 22.0711 23.7501 20C23.7501 17.9289 22.0712 16.25 20.0001 16.25ZM13.7501 20C13.7501 16.5482 16.5483 13.75 20.0001 13.75C23.4519 13.75 26.2501 16.5482 26.2501 20C26.2501 23.4518 23.4519 26.25 20.0001 26.25C16.5483 26.25 13.7501 23.4518 13.7501 20Z" fill="#0F7A7A"/>
</svg>