<svg xmlns="http://www.w3.org/2000/svg" width="40" height="40" viewBox="0 0 40 40" fill="none">
  <path fill-rule="evenodd" clip-rule="evenodd" d="M16.9822 4.48223C17.4511 4.01339 18.087 3.75 18.75 3.75H21.25C21.913 3.75 22.5489 4.01339 23.0178 4.48223C23.4866 4.95108 23.75 5.58696 23.75 6.25L23.7449 13.4912L30.0226 9.85433L30.0259 9.85246C30.5914 9.52711 31.2629 9.43971 31.8929 9.60948C32.5228 9.77925 33.0595 10.1923 33.385 10.7577L34.6714 12.9909L34.6735 12.9946C34.9961 13.559 35.0823 14.228 34.9134 14.8557C34.7445 15.4834 34.3342 16.0188 33.772 16.3451L27.4778 19.993L33.7655 23.637C33.7666 23.6377 33.7678 23.6383 33.7689 23.639C34.048 23.7993 34.2929 24.013 34.4895 24.2679C34.687 24.5238 34.832 24.8162 34.9161 25.1283C35.0003 25.4404 35.022 25.766 34.9799 26.0865C34.9379 26.407 34.833 26.716 34.6713 26.9959L33.3857 29.2274C33.0603 29.7929 32.5236 30.2059 31.8937 30.3757C31.2637 30.5454 30.5921 30.458 30.0266 30.1327L30.0234 30.1308L23.7455 26.4939L23.75 33.75C23.75 34.413 23.4866 35.0489 23.0178 35.5178C22.5489 35.9866 21.913 36.25 21.25 36.25H18.75C18.087 36.25 17.4511 35.9866 16.9822 35.5178C16.5134 35.0489 16.25 34.413 16.25 33.75L16.2551 26.501L9.97739 30.1379L9.97414 30.1397C9.40863 30.4651 8.73705 30.5525 8.10712 30.3827C7.47735 30.213 6.94076 29.8001 6.61531 29.2349L5.32859 27.0013C5.32729 26.9991 5.326 26.9968 5.32472 26.9945C5.0044 26.4304 4.91948 25.7627 5.08839 25.1363C5.2573 24.51 5.66641 23.9755 6.22694 23.6489L6.22947 23.6474L12.523 20L6.23165 16.3539C5.95263 16.1935 5.70785 15.9799 5.51125 15.7251C5.31379 15.4692 5.16882 15.1768 5.08466 14.8647C5.0005 14.5526 4.97881 14.227 5.02083 13.9065C5.06279 13.5864 5.16746 13.2778 5.32885 12.9982C5.32863 12.9986 5.32908 12.9979 5.32885 12.9982L6.61426 10.7648C6.61426 10.7648 6.61427 10.7648 6.61426 10.7648C6.93969 10.1993 7.4764 9.78628 8.10634 9.61651C8.73628 9.44674 9.40785 9.53414 9.97335 9.85949L9.9766 9.86136L16.2545 13.4983L16.25 6.25C16.25 5.58696 16.5134 4.95107 16.9822 4.48223ZM18.75 6.25L18.7555 15.1186C18.7567 15.3916 18.6863 15.6602 18.5514 15.8976C18.4153 16.1371 18.2182 16.3363 17.9803 16.4751C17.7423 16.6139 17.4719 16.6874 17.1964 16.688C16.921 16.6886 16.6502 16.6163 16.4117 16.4786L16.4101 16.4777L8.76112 12.0464L7.5165 14.209L15.1776 18.649L15.1834 18.6523C15.4183 18.7902 15.6131 18.9871 15.7485 19.2235C15.8839 19.4599 15.9551 19.7276 15.9551 20C15.9551 20.2724 15.8839 20.5401 15.7485 20.7765C15.6132 21.0129 15.4183 21.2098 15.1834 21.3477L15.1776 21.351L7.51652 25.791L8.76188 27.9528L16.4109 23.5215L16.4125 23.5206C16.651 23.3829 16.9217 23.3106 17.1972 23.3113C17.4727 23.3119 17.7431 23.3853 17.9811 23.5241C18.219 23.6629 18.416 23.8621 18.5522 24.1016C18.6871 24.3391 18.7575 24.6077 18.7562 24.8807L18.75 33.75H21.25L21.2445 24.8736C21.2433 24.6006 21.3137 24.332 21.4486 24.0946C21.5848 23.8551 21.7818 23.6559 22.0197 23.5171C22.2577 23.3783 22.5281 23.3048 22.8036 23.3042C23.079 23.3036 23.3498 23.3758 23.5883 23.5136L23.5899 23.5145L31.2389 27.9458L32.4843 25.784L24.8232 21.344L24.8174 21.3406C24.5825 21.2028 24.3876 21.0059 24.2522 20.7695C24.1169 20.5331 24.0456 20.2654 24.0456 19.993C24.0456 19.7206 24.1169 19.4529 24.2522 19.2165C24.3876 18.9801 24.5825 18.7832 24.8174 18.6453L24.8232 18.6419L32.484 14.2021L31.2381 12.0394L23.5891 16.4707L23.5876 16.4716C23.349 16.6093 23.0782 16.6815 22.8028 16.6809C22.5273 16.6803 22.2569 16.6069 22.0189 16.4681C21.781 16.3293 21.584 16.13 21.4478 15.8906C21.3129 15.6531 21.2425 15.3845 21.2438 15.1115L21.25 6.25L18.75 6.25ZM8.78104 12.0118C8.78103 12.0118 8.78106 12.0118 8.78104 12.0118V12.0118Z" fill="#0F7A7A"/>
</svg>